<?xml version="1.0" encoding="UTF-8" standalone="no"?>
<!-- Created with Inkscape (http://www.inkscape.org/) -->

<svg
   xmlns:dc="http://purl.org/dc/elements/1.1/"
   xmlns:cc="http://creativecommons.org/ns#"
   xmlns:rdf="http://www.w3.org/1999/02/22-rdf-syntax-ns#"
   xmlns:svg="http://www.w3.org/2000/svg"
   xmlns="http://www.w3.org/2000/svg"
   xmlns:sodipodi="http://sodipodi.sourceforge.net/DTD/sodipodi-0.dtd"
   xmlns:inkscape="http://www.inkscape.org/namespaces/inkscape"
   width="508.47864mm"
   height="732.17859mm"
   viewBox="0 0 1801.696 2594.3336"
   id="svg17123"
   version="1.1"
   inkscape:version="0.91 r13725"
   sodipodi:docname="cocktailglass.svg">
  <defs
     id="defs17125" />
  <sodipodi:namedview
     id="base"
     pagecolor="#ffffff"
     bordercolor="#666666"
     borderopacity="1.0"
     inkscape:pageopacity="0.0"
     inkscape:pageshadow="2"
     inkscape:zoom="0.052796406"
     inkscape:cx="1885.7425"
     inkscape:cy="1771.4645"
     inkscape:document-units="px"
     inkscape:current-layer="layer1"
     showgrid="false"
     fit-margin-top="0"
     fit-margin-left="0"
     fit-margin-right="0"
     fit-margin-bottom="0"
     inkscape:window-width="1916"
     inkscape:window-height="1035"
     inkscape:window-x="4"
     inkscape:window-y="4"
     inkscape:window-maximized="0" />
  <metadata
     id="metadata17128">
    <rdf:RDF>
      <cc:Work
         rdf:about="">
        <dc:format>image/svg+xml</dc:format>
        <dc:type
           rdf:resource="http://purl.org/dc/dcmitype/StillImage" />
        <dc:title></dc:title>
      </cc:Work>
    </rdf:RDF>
  </metadata>
  <g
     inkscape:label="Layer 1"
     inkscape:groupmode="layer"
     id="layer1"
     transform="translate(968.10362,760.88946)">
    <g
       id="g17748">
      <g
         id="g17703">
        <g
           id="g17714">
          <path
             sodipodi:nodetypes="ccccccccc"
             inkscape:connector-curvature="0"
             id="path17682"
             d="m -939.84128,-535.73304 791.26985,988.09524 5.71429,1117.1428 -422.85715,174.2858 c 317.14286,130.4762 920,80.9524 1028.57143,14.2857 L -5.7142857,1546.6479 -2.8571429,429.50506 766.25001,-513.5108 c -536.19048,139.04761 -1143.23414,183.80952 -1706.09129,-22.22224 z"
             style="fill:none;fill-rule:evenodd;stroke:#000000;stroke-width:16;stroke-linecap:round;stroke-linejoin:round;stroke-miterlimit:4;stroke-dasharray:none;stroke-opacity:1" />
          <ellipse
             ry="167.14285"
             rx="881.42859"
             cy="-569.06635"
             cx="-78.571426"
             id="path17684"
             style="opacity:1;fill:none;fill-opacity:1;stroke:#000000;stroke-width:16;stroke-linecap:round;stroke-linejoin:round;stroke-miterlimit:4;stroke-dasharray:none;stroke-opacity:1" />
          <path
             inkscape:connector-curvature="0"
             id="path17686"
             d="m 331.42857,-344.78065 242.85714,-42.85715 -605.714281,720 -37.142858,-5.71428 z"
             style="fill:none;fill-rule:evenodd;stroke:#000000;stroke-width:16;stroke-linecap:round;stroke-linejoin:round;stroke-miterlimit:4;stroke-dasharray:none;stroke-opacity:1" />
          <path
             inkscape:connector-curvature="0"
             id="path17688"
             d="M -37.142857,523.79078 -54.285714,1560.9336 -80,1560.9336 -65.714286,520.93363 Z"
             style="fill:none;fill-rule:evenodd;stroke:#000000;stroke-width:16;stroke-linecap:round;stroke-linejoin:round;stroke-miterlimit:4;stroke-dasharray:none;stroke-opacity:1" />
          <path
             inkscape:connector-curvature="0"
             id="path17690"
             d="m 297.14286,1718.0765 c -22.85715,8.5714 -148.57143,40 -148.57143,40 l 20,22.8571 182.85714,-31.4285 z"
             style="fill:none;fill-rule:evenodd;stroke:#000000;stroke-width:16;stroke-linecap:round;stroke-linejoin:round;stroke-miterlimit:4;stroke-dasharray:none;stroke-opacity:1" />
          <path
             inkscape:connector-curvature="0"
             id="path17692"
             d="m 82.857143,1758.0765 28.571427,25.7143 -62.857141,8.5714 -5.714286,-22.8571 z"
             style="fill:none;fill-rule:evenodd;stroke:#000000;stroke-width:16;stroke-linecap:round;stroke-linejoin:round;stroke-miterlimit:4;stroke-dasharray:none;stroke-opacity:1" />
          <path
             inkscape:connector-curvature="0"
             id="path17694"
             d="m -149.47419,1598.6777 -145.71429,71.4286 68.57143,54.2857 28.57143,-37.1429 -11.42857,-28.5714 108.57143,-54.2857 z"
             style="fill:none;fill-rule:evenodd;stroke:#000000;stroke-width:16;stroke-linecap:round;stroke-linejoin:round;stroke-miterlimit:4;stroke-dasharray:none;stroke-opacity:1" />
          <path
             inkscape:connector-curvature="0"
             id="path17696"
             d="m 14.285714,1632.3622 31.428572,57.1429 108.571424,-31.4286 -99.999996,-42.8572 z"
             style="fill:none;fill-rule:evenodd;stroke:#000000;stroke-width:16;stroke-linecap:round;stroke-linejoin:round;stroke-miterlimit:4;stroke-dasharray:none;stroke-opacity:1" />
          <path
             sodipodi:nodetypes="ccccccccccccccc"
             inkscape:connector-curvature="0"
             id="path17698"
             d="m -865.63492,-496.28859 c 0.35277,-97.90688 136.4472,-44.01682 184.53412,-100.01305 88.24908,16.98958 168.136,-21.25666 256.38796,-27.9156 74.63977,17.88968 121.2868,-49.01637 192.65388,-40.56341 49.90298,-0.81253 100.37012,5.47756 147.427599,-13.72053 73.719966,23.89832 152.796001,9.66597 230.564171,20.66527 101.75531,4.07082 203.83893,11.43377 305.20181,22.6996 77.79297,6.60901 151.56574,32.03457 221.89697,57.09707 77.56836,0.48927 79.93205,92.7917 -7.4496,80.48411 -64.80171,13.39809 -141.81424,41.23612 -204.74252,46.74804 -87.22891,33.98246 -181.015,16.12942 -271.43425,32.67042 -85.49402,3.71373 -171.352733,7.6994 -257.446405,12.32242 -129.885115,12.90339 -261.208785,6.99542 -389.891045,-10.39497 -79.93439,2.44529 -150.81895,-18.11073 -228.32073,-32.601 -60.05,-17.82843 -118.31238,-38.10354 -179.38196,-47.47837 z"
             style="fill:none;fill-rule:evenodd;stroke:#000000;stroke-width:16;stroke-linecap:round;stroke-linejoin:round;stroke-miterlimit:4;stroke-dasharray:none;stroke-opacity:1" />
        </g>
      </g>
      <path
         sodipodi:nodetypes="cc"
         inkscape:connector-curvature="0"
         id="path17744"
         d="m -947.92898,-541.7455 c 425.14151,227.92322 1434.64281,174.14568 1761.49358,-12.65979"
         style="fill:none;fill-rule:evenodd;stroke:#000000;stroke-width:32.81642532;stroke-linecap:round;stroke-linejoin:round;stroke-miterlimit:4;stroke-dasharray:none;stroke-opacity:1" />
      <path
         style="fill:none;fill-rule:evenodd;stroke:#000000;stroke-width:32.81642532;stroke-linecap:round;stroke-linejoin:round;stroke-miterlimit:4;stroke-dasharray:none;stroke-opacity:1"
         d="m -951.37379,-541.74811 c -26.12865,-231.36804 1458.75648,-298.15886 1768.3832,-21.78832"
         id="path17746"
         inkscape:connector-curvature="0"
         sodipodi:nodetypes="cc" />
    </g>
  </g>
</svg>
